<?xml version="1.0" encoding="UTF-8"?>
<svg width="21px" height="21px" viewBox="0 0 21 21" version="1.1" xmlns="http://www.w3.org/2000/svg" xmlns:xlink="http://www.w3.org/1999/xlink">
    <!-- Generator: Sketch 49.1 (51147) - http://www.bohemiancoding.com/sketch -->
    <title>Proteccioﾌ］ Catioﾌ］ica</title>
    <desc>Created with Sketch.</desc>
    <defs></defs>
    <g id="Escritorio" stroke="none" stroke-width="1" fill="none" fill-rule="evenodd">
        <g id="index-escritorio" transform="translate(-956.000000, -3067.000000)">
            <g id="Proteccioﾌ］-Catioﾌ］ica" transform="translate(957.000000, 3068.000000)">
                <rect id="Rectangle-path" fill="#000000" fill-rule="nonzero" x="0" y="7.74074074" width="4.92592593" height="2.81481481"></rect>
                <rect id="Rectangle-path" fill="#000000" fill-rule="nonzero" x="14.7777778" y="4.92592593" width="1.40740741" height="1.40740741"></rect>
                <rect id="Rectangle-path" fill="#000000" fill-rule="nonzero" x="14.0740741" y="7.74074074" width="4.92592593" height="1"></rect>
                <rect id="Rectangle-path" fill="#000000" fill-rule="nonzero" x="9.14814815" y="7.03703704" width="3.51851852" height="2.81481481"></rect>
                <rect id="Rectangle-path" fill="#000000" fill-rule="nonzero" x="2.11111111" y="12.6666667" width="1.40740741" height="1.40740741"></rect>
                <rect id="Rectangle-path" fill="#000000" fill-rule="nonzero" x="6.33333333" y="7.74074074" width="1.40740741" height="1.40740741"></rect>
                <rect id="Rectangle-path" fill="#000000" fill-rule="nonzero" x="4.22222222" y="11.2592593" width="1" height="7.03703704"></rect>
                <rect id="Rectangle-path" fill="#000000" fill-rule="nonzero" x="7.03703704" y="15.4814815" width="1" height="1"></rect>
                <rect id="Rectangle-path" fill="#000000" fill-rule="nonzero" x="16.1851852" y="10.5555556" width="1" height="1"></rect>
                <rect id="Rectangle-path" fill="#000000" fill-rule="nonzero" x="16.8888889" y="13.3703704" width="1" height="1"></rect>
                <rect id="Rectangle-path" fill="#000000" fill-rule="nonzero" x="15.4814815" y="9.14814815" width="1" height="1"></rect>
                <rect id="Rectangle-path" fill="#000000" fill-rule="nonzero" x="16.8888889" y="9.14814815" width="1" height="1"></rect>
                <rect id="Rectangle-path" fill="#000000" fill-rule="nonzero" x="17.5925926" y="10.5555556" width="1" height="1"></rect>
                <rect id="Rectangle-path" fill="#000000" fill-rule="nonzero" x="16.1851852" y="13.3703704" width="1" height="1"></rect>
                <rect id="Rectangle-path" fill="#000000" fill-rule="nonzero" x="5.62962963" y="10.5555556" width="2.81481481" height="1.40740741"></rect>
                <rect id="Rectangle-path" fill="#000000" fill-rule="nonzero" x="5.62962963" y="12.6666667" width="3.51851852" height="1"></rect>
                <rect id="Rectangle-path" fill="#000000" fill-rule="nonzero" x="8.44444444" y="11.962963" width="1" height="7.03703704"></rect>
                <rect id="Rectangle-path" fill="#000000" fill-rule="nonzero" x="7.03703704" y="14.0740741" width="1" height="1"></rect>
                <rect id="Rectangle-path" fill="#000000" fill-rule="nonzero" x="7.03703704" y="17.5925926" width="1" height="1"></rect>
                <rect id="Rectangle-path" fill="#000000" fill-rule="nonzero" x="4.92592593" y="15.4814815" width="1" height="1"></rect>
                <rect id="Rectangle-path" fill="#000000" fill-rule="nonzero" x="4.92592593" y="17.5925926" width="1" height="1"></rect>
                <rect id="Rectangle-path" fill="#000000" fill-rule="nonzero" x="7.74074074" y="14.7777778" width="1" height="1"></rect>
                <rect id="Rectangle-path" fill="#000000" fill-rule="nonzero" x="7.74074074" y="16.1851852" width="1" height="1"></rect>
                <rect id="Rectangle-path" fill="#000000" fill-rule="nonzero" x="7.74074074" y="18.2962963" width="1" height="1"></rect>
                <rect id="Rectangle-path" fill="#000000" fill-rule="nonzero" x="6.33333333" y="14.7777778" width="1" height="1"></rect>
                <rect id="Rectangle-path" fill="#000000" fill-rule="nonzero" x="6.33333333" y="16.1851852" width="1" height="1"></rect>
                <rect id="Rectangle-path" fill="#000000" fill-rule="nonzero" x="6.33333333" y="18.2962963" width="1" height="1"></rect>
                <rect id="Rectangle-path" fill="#000000" fill-rule="nonzero" x="10.5555556" y="10.5555556" width="1" height="1"></rect>
                <rect id="Rectangle-path" fill="#000000" fill-rule="nonzero" x="10.5555556" y="11.962963" width="1" height="1"></rect>
                <rect id="Rectangle-path" fill="#000000" fill-rule="nonzero" x="10.5555556" y="13.3703704" width="1" height="1"></rect>
                <rect id="Rectangle-path" fill="#000000" fill-rule="nonzero" x="11.962963" y="9.85185185" width="1" height="8.44444444"></rect>
                <rect id="Rectangle-path" fill="#000000" fill-rule="nonzero" x="9.14814815" y="14.7777778" width="2.81481481" height="2.11111111"></rect>
                <rect id="Rectangle-path" fill="#000000" fill-rule="nonzero" x="9.14814815" y="17.5925926" width="1" height="1"></rect>
                <rect id="Rectangle-path" fill="#000000" fill-rule="nonzero" x="11.2592593" y="17.5925926" width="1" height="1"></rect>
                <rect id="Rectangle-path" fill="#000000" fill-rule="nonzero" x="10.5555556" y="16.8888889" width="1" height="1"></rect>
                <rect id="Rectangle-path" fill="#000000" fill-rule="nonzero" x="9.85185185" y="18.2962963" width="1" height="1"></rect>
                <rect id="Rectangle-path" fill="#000000" fill-rule="nonzero" x="8.44444444" y="9.14814815" width="1" height="1"></rect>
                <rect id="Rectangle-path" fill="#000000" fill-rule="nonzero" x="9.14814815" y="9.14814815" width="1" height="1"></rect>
                <rect id="Rectangle-path" fill="#000000" fill-rule="nonzero" x="9.14814815" y="10.5555556" width="1" height="2.81481481"></rect>
                <polygon id="Shape" fill="#000000" fill-rule="nonzero" points="14.7777778 13.3703704 13.3703704 12.4343187 13.3703704 9.85185185 14.7777778 10.7879036"></polygon>
                <polygon id="Shape" fill="#000000" fill-rule="nonzero" points="19 13.3703704 16.1851852 12.6412235 16.1851852 11.2592593 19 11.9884061"></polygon>
                <rect id="Rectangle-path" fill="#000000" fill-rule="nonzero" x="12.6666667" y="13.3703704" width="1.40740741" height="2.11111111"></rect>
                <rect id="Rectangle-path" fill="#000000" fill-rule="nonzero" x="14.0740741" y="14.0740741" width="3.51851852" height="1"></rect>
                <rect id="Rectangle-path" fill="#000000" fill-rule="nonzero" x="14.7777778" y="15.4814815" width="1" height="1"></rect>
                <rect id="Rectangle-path" fill="#000000" fill-rule="nonzero" x="13.3703704" y="15.4814815" width="1" height="2.11111111"></rect>
                <rect id="Rectangle-path" fill="#000000" fill-rule="nonzero" x="14.0740741" y="17.5925926" width="1" height="1"></rect>
                <circle id="Oval" stroke="#000000" cx="9.5" cy="9.5" r="9.5"></circle>
            </g>
        </g>
    </g>
</svg>