<?xml version="1.0" encoding="UTF-8"?>
<svg width="42px" height="31px" viewBox="0 0 42 31" version="1.1" xmlns="http://www.w3.org/2000/svg" xmlns:xlink="http://www.w3.org/1999/xlink">
    <!-- Generator: Sketch 49.1 (51147) - http://www.bohemiancoding.com/sketch -->
    <title>Equipos de Medición[ GRN ]</title>
    <desc>Created with Sketch.</desc>
    <defs></defs>
    <g id="Escritorio" stroke="none" stroke-width="1" fill="none" fill-rule="evenodd">
        <g id="Productos_Bancos" transform="translate(-102.000000, -317.000000)" stroke="#60AD5F" stroke-width="2">
            <g id="Equipos-de-Medición[-GRN-]" transform="translate(103.000000, 318.000000)">
                <path d="M7.46677016,25.7980354 L1.88997769,25.7980354 C0.846026972,25.7980354 0,24.9700065 0,23.9482646 C1.10216358,18.2090373 1.21082759,11.9646365 0,5.05173543 C0,4.02999345 0.846026972,3.20196464 1.88997769,3.20196464 L7.46677016,3.20196464 C10.8974483,1.20026195 15.2556515,0 20.0019404,0 C31.0468614,0 40,6.49129011 40,14.4981009 C40,22.5049116 31.0468614,29 20.0019404,29 C15.2556515,29 10.8974483,27.8035363 7.46677016,25.7980354 Z" id="Shape"></path>
                <path d="M31.6185233,21 L7.3852664,21 C7.17336988,21 7,20.8400203 7,20.6444896 L7,7.35551041 C7,7.15997969 7.17336988,7 7.3852664,7 L31.6146706,7 C31.8265671,7 31.999937,7.15997969 31.999937,7.35551041 L31.999937,20.6409345 C32.0037897,20.8400203 31.8304198,21 31.6185233,21 Z" id="Shape"></path>
            </g>
        </g>
    </g>
</svg>