<?xml version="1.0" encoding="UTF-8"?>
<svg width="21px" height="16px" viewBox="0 0 21 16" version="1.1" xmlns="http://www.w3.org/2000/svg" xmlns:xlink="http://www.w3.org/1999/xlink">
    <!-- Generator: Sketch 49.1 (51147) - http://www.bohemiancoding.com/sketch -->
    <title>Equipos de Medición</title>
    <desc>Created with Sketch.</desc>
    <defs></defs>
    <g id="Escritorio" stroke="none" stroke-width="1" fill="none" fill-rule="evenodd">
        <g id="index-escritorio" transform="translate(-609.000000, -3054.000000)" stroke="#000000">
            <g id="Equipos-de-Medición" transform="translate(610.000000, 3055.000000)">
                <path d="M3.55329457,12.5083333 L0.907655039,12.5083333 C0.412403101,12.5083333 0.0110465116,12.1069767 0.0110465116,11.6117248 C0.533914729,8.82984496 0.585465116,5.80310078 0.0110465116,2.45232558 C0.0110465116,1.95707364 0.412403101,1.55571705 0.907655039,1.55571705 L3.55329457,1.55571705 C5.18081395,0.585465116 7.24835271,0.00368217054 9.5,0.00368217054 C14.7397287,0.00368217054 18.9871124,3.1500969 18.9871124,7.03110465 C18.9871124,10.9121124 14.7397287,14.0603682 9.5,14.0603682 C7.24835271,14.0603682 5.18081395,13.4804264 3.55329457,12.5083333 Z" id="Shape"></path>
                <path d="M15.2902132,10.6580426 L3.70978682,10.6580426 C3.60852713,10.6580426 3.52567829,10.5751938 3.52567829,10.4739341 L3.52567829,3.59195736 C3.52567829,3.49069767 3.60852713,3.40784884 3.70978682,3.40784884 L15.2883721,3.40784884 C15.3896318,3.40784884 15.4724806,3.49069767 15.4724806,3.59195736 L15.4724806,10.472093 C15.4743217,10.5751938 15.3914729,10.6580426 15.2902132,10.6580426 Z" id="Shape"></path>
            </g>
        </g>
    </g>
</svg>