<?xml version="1.0" encoding="UTF-8"?>
<svg width="28px" height="44px" viewBox="0 0 28 44" version="1.1" xmlns="http://www.w3.org/2000/svg" xmlns:xlink="http://www.w3.org/1999/xlink">
    <!-- Generator: Sketch 49.1 (51147) - http://www.bohemiancoding.com/sketch -->
    <title>protectionIcon</title>
    <desc>Created with Sketch.</desc>
    <defs></defs>
    <g id="Escritorio" stroke="none" stroke-width="1" fill="none" fill-rule="evenodd">
        <g id="Productos_Bancos" transform="translate(-184.000000, -280.000000)" stroke="#60AD5F" stroke-width="2">
            <g id="protectionIcon" transform="translate(185.000000, 281.000000)">
                <path d="M19.2,0.44176106 L0.283333333,22.0924966 C0.025,22.4008996 -0.0583333334,22.8218283 0.0708333333,23.2052485 C0.2,23.5886687 0.516666667,23.8762338 0.908333332,23.9679212 L8.99583333,24.0095973 L3.95416666,40.5091665 C3.8125,41.0342854 4.05000001,41.592745 4.52916667,41.8469692 C5.01249999,42.1011935 5.60833332,41.9845005 5.95833334,41.5677395 L24.875,19.917004 C24.9958334,19.7753052 25.075,19.6086008 25.1166667,19.4293936 C25.1666666,19.2251807 25.1541667,19.0084649 25.0874999,18.8000844 C24.9583333,18.4166643 24.6416666,18.1290992 24.2458334,18.0374117 L16.1666667,17.9957356 L21.2083333,1.49616646 C21.35,0.975215178 21.1125,0.412587787 20.6291667,0.15836356 C20.1458333,-0.095860668 19.5541667,0.0208324203 19.2,0.44176106 Z" id="Shape"></path>
            </g>
        </g>
    </g>
</svg>