<?xml version="1.0" encoding="UTF-8"?>
<svg width="13px" height="21px" viewBox="0 0 13 21" version="1.1" xmlns="http://www.w3.org/2000/svg" xmlns:xlink="http://www.w3.org/1999/xlink">
    <!-- Generator: Sketch 49.1 (51147) - http://www.bohemiancoding.com/sketch -->
    <title>Shape</title>
    <desc>Created with Sketch.</desc>
    <defs></defs>
    <g id="Escritorio" stroke="none" stroke-width="1" fill="none" fill-rule="evenodd">
        <g id="index-escritorio" transform="translate(-692.000000, -2596.000000)" stroke="#000000">
            <g id="Protección-Atmosférica" transform="translate(693.000000, 2597.000000)">
                <path d="M8.68571429,0.199844289 L0.128174603,9.99422463 C0.0113095238,10.1337403 -0.0263888889,10.3241604 0.0320436508,10.4976124 C0.0904761905,10.6710644 0.233730159,10.8011534 0.410912698,10.842631 L4.06954365,10.8614845 L1.78878968,18.3255753 C1.72470238,18.5631291 1.83214286,18.8157656 2.04890873,18.9307718 C2.26755952,19.045778 2.53710317,18.9929883 2.69543651,18.8044536 L11.2529762,9.01007322 C11.3076389,8.94597141 11.3434524,8.87055751 11.3623016,8.78948756 C11.3849206,8.69710554 11.3792659,8.59906747 11.3491071,8.50480009 C11.2906746,8.33134812 11.1474206,8.20125914 10.9683532,8.15978149 L7.31349206,8.14092802 L9.59424603,0.67683721 C9.65833333,0.441168771 9.55089286,0.186646856 9.33224206,0.0716406581 C9.11359127,-0.0433655403 8.84593254,0.00942419013 8.68571429,0.199844289 Z" id="Shape"></path>
            </g>
        </g>
    </g>
</svg>